<mxfile host="65bd71144e">
    <diagram id="UMS9nKY7Dt_vSzlsI9hF" name="Page-1">
        <mxGraphModel dx="859" dy="463" grid="1" gridSize="10" guides="1" tooltips="1" connect="1" arrows="1" fold="1" page="1" pageScale="1" pageWidth="850" pageHeight="1100" math="0" shadow="0">
            <root>
                <mxCell id="0"/>
                <mxCell id="1" parent="0"/>
                <mxCell id="bJMHT8rVgH3jV2KobR5U-139" value="" style="shape=folder;fontStyle=1;tabWidth=200;tabHeight=30;tabPosition=left;html=1;boundedLbl=1;" parent="1" vertex="1">
                    <mxGeometry x="240" y="270" width="404.38" height="270" as="geometry"/>
                </mxCell>
                <mxCell id="E0ZFKpVbwkk2b9CQsdlB-33" style="edgeStyle=none;html=1;entryX=0;entryY=0.5;entryDx=0;entryDy=0;" edge="1" parent="1" target="6">
                    <mxGeometry relative="1" as="geometry">
                        <mxPoint x="90" y="350" as="sourcePoint"/>
                    </mxGeometry>
                </mxCell>
                <mxCell id="bJMHT8rVgH3jV2KobR5U-130" value="KTDI Administration" style="shape=umlActor;verticalLabelPosition=bottom;verticalAlign=top;html=1;" parent="1" vertex="1">
                    <mxGeometry x="60" y="320" width="30" height="60" as="geometry"/>
                </mxCell>
                <mxCell id="bJMHT8rVgH3jV2KobR5U-131" value="KTDI Staff" style="shape=umlActor;verticalLabelPosition=bottom;verticalAlign=top;html=1;" parent="1" vertex="1">
                    <mxGeometry x="80" y="710" width="30" height="60" as="geometry"/>
                </mxCell>
                <mxCell id="bJMHT8rVgH3jV2KobR5U-132" value="Student" style="shape=umlActor;verticalLabelPosition=bottom;verticalAlign=top;html=1;" parent="1" vertex="1">
                    <mxGeometry x="760" y="580" width="30" height="60" as="geometry"/>
                </mxCell>
                <mxCell id="bJMHT8rVgH3jV2KobR5U-134" value="" style="shape=folder;fontStyle=1;tabWidth=188;tabHeight=30;tabPosition=left;html=1;boundedLbl=1;" parent="1" vertex="1">
                    <mxGeometry x="271.88" y="60" width="340" height="180" as="geometry"/>
                </mxCell>
                <mxCell id="bJMHT8rVgH3jV2KobR5U-136" value="" style="ellipse;whiteSpace=wrap;html=1;fillColor=none;" parent="1" vertex="1">
                    <mxGeometry x="383.76" y="100" width="120" height="50" as="geometry"/>
                </mxCell>
                <mxCell id="bJMHT8rVgH3jV2KobR5U-137" value="Authentication Subsystem" style="text;html=1;strokeColor=none;fillColor=none;align=center;verticalAlign=middle;whiteSpace=wrap;rounded=0;" parent="1" vertex="1">
                    <mxGeometry x="270" y="60" width="200" height="30" as="geometry"/>
                </mxCell>
                <mxCell id="bJMHT8rVgH3jV2KobR5U-140" value="Report &amp;amp; Analytic Subsystem" style="text;html=1;strokeColor=none;fillColor=none;align=center;verticalAlign=middle;whiteSpace=wrap;rounded=0;" parent="1" vertex="1">
                    <mxGeometry x="239.38" y="270" width="200" height="30" as="geometry"/>
                </mxCell>
                <mxCell id="bJMHT8rVgH3jV2KobR5U-141" value="" style="shape=folder;fontStyle=1;tabWidth=200;tabHeight=30;tabPosition=left;html=1;boundedLbl=1;" parent="1" vertex="1">
                    <mxGeometry x="243.5" y="820" width="394" height="210" as="geometry"/>
                </mxCell>
                <mxCell id="bJMHT8rVgH3jV2KobR5U-142" value="Room Management Subsystem" style="text;html=1;strokeColor=none;fillColor=none;align=center;verticalAlign=middle;whiteSpace=wrap;rounded=0;" parent="1" vertex="1">
                    <mxGeometry x="239.38" y="820" width="200" height="30" as="geometry"/>
                </mxCell>
                <mxCell id="bJMHT8rVgH3jV2KobR5U-143" value="" style="shape=folder;fontStyle=1;tabWidth=200;tabHeight=30;tabPosition=left;html=1;boundedLbl=1;" parent="1" vertex="1">
                    <mxGeometry x="226.88" y="580" width="430" height="200" as="geometry"/>
                </mxCell>
                <mxCell id="bJMHT8rVgH3jV2KobR5U-144" value="Payment Management Subsystem" style="text;html=1;strokeColor=none;fillColor=none;align=center;verticalAlign=middle;whiteSpace=wrap;rounded=0;" parent="1" vertex="1">
                    <mxGeometry x="226.88" y="580" width="200" height="30" as="geometry"/>
                </mxCell>
                <mxCell id="E0ZFKpVbwkk2b9CQsdlB-30" style="edgeStyle=none;html=1;entryX=0.5;entryY=0;entryDx=0;entryDy=0;" edge="1" parent="1" target="bJMHT8rVgH3jV2KobR5U-150">
                    <mxGeometry relative="1" as="geometry">
                        <mxPoint x="444" y="150" as="sourcePoint"/>
                    </mxGeometry>
                </mxCell>
                <mxCell id="bJMHT8rVgH3jV2KobR5U-146" value="User Sign in / Login" style="text;html=1;strokeColor=none;fillColor=none;align=center;verticalAlign=middle;whiteSpace=wrap;rounded=0;" parent="1" vertex="1">
                    <mxGeometry x="408.76" y="110" width="70" height="30" as="geometry"/>
                </mxCell>
                <mxCell id="bJMHT8rVgH3jV2KobR5U-150" value="" style="ellipse;whiteSpace=wrap;html=1;fillColor=none;movable=1;resizable=1;rotatable=1;deletable=1;editable=1;connectable=1;" parent="1" vertex="1">
                    <mxGeometry x="384.38" y="180" width="120" height="50" as="geometry"/>
                </mxCell>
                <mxCell id="bJMHT8rVgH3jV2KobR5U-151" value="Password" style="text;html=1;strokeColor=none;fillColor=none;align=center;verticalAlign=middle;whiteSpace=wrap;rounded=0;movable=1;resizable=1;rotatable=1;deletable=1;editable=1;connectable=1;" parent="1" vertex="1">
                    <mxGeometry x="408.76" y="190" width="70" height="30" as="geometry"/>
                </mxCell>
                <mxCell id="bJMHT8rVgH3jV2KobR5U-153" value="" style="edgeStyle=none;html=1;" parent="1" source="bJMHT8rVgH3jV2KobR5U-154" target="bJMHT8rVgH3jV2KobR5U-173" edge="1">
                    <mxGeometry relative="1" as="geometry"/>
                </mxCell>
                <mxCell id="bJMHT8rVgH3jV2KobR5U-154" value="Make payments" style="ellipse;whiteSpace=wrap;html=1;fillColor=none;" parent="1" vertex="1">
                    <mxGeometry x="508.76" y="620" width="120" height="50" as="geometry"/>
                </mxCell>
                <mxCell id="bJMHT8rVgH3jV2KobR5U-155" value="&amp;lt;&amp;lt;include&amp;gt;&amp;gt;" style="text;html=1;strokeColor=none;fillColor=none;align=center;verticalAlign=middle;whiteSpace=wrap;rounded=0;fontSize=11;rotation=0;" parent="1" vertex="1">
                    <mxGeometry x="460" y="150" width="60" height="30" as="geometry"/>
                </mxCell>
                <mxCell id="bJMHT8rVgH3jV2KobR5U-166" value="Room occupancy rate" style="ellipse;whiteSpace=wrap;html=1;fillColor=none;" parent="1" vertex="1">
                    <mxGeometry x="391.25" y="310" width="162.5" height="50" as="geometry"/>
                </mxCell>
                <mxCell id="bJMHT8rVgH3jV2KobR5U-167" value="" style="edgeStyle=none;html=1;exitX=1;exitY=0.5;exitDx=0;exitDy=0;" parent="1" source="bJMHT8rVgH3jV2KobR5U-187" target="bJMHT8rVgH3jV2KobR5U-171" edge="1">
                    <mxGeometry relative="1" as="geometry">
                        <mxPoint x="433.8707277427974" y="733.2886491524785" as="sourcePoint"/>
                    </mxGeometry>
                </mxCell>
                <mxCell id="bJMHT8rVgH3jV2KobR5U-169" value="Check in / out" style="ellipse;whiteSpace=wrap;html=1;" parent="1" vertex="1">
                    <mxGeometry x="340.62" y="960" width="107.51" height="45" as="geometry"/>
                </mxCell>
                <mxCell id="bJMHT8rVgH3jV2KobR5U-171" value="Payment receipts" style="ellipse;whiteSpace=wrap;html=1;fillColor=none;" parent="1" vertex="1">
                    <mxGeometry x="536.88" y="720" width="110" height="50" as="geometry"/>
                </mxCell>
                <mxCell id="bJMHT8rVgH3jV2KobR5U-173" value="Payment methods" style="ellipse;whiteSpace=wrap;html=1;fillColor=none;" parent="1" vertex="1">
                    <mxGeometry x="245" y="620" width="120" height="52.5" as="geometry"/>
                </mxCell>
                <mxCell id="bJMHT8rVgH3jV2KobR5U-174" value="Maintenance request / tracking" style="ellipse;whiteSpace=wrap;html=1;" parent="1" vertex="1">
                    <mxGeometry x="264.38" y="900" width="106.88" height="60" as="geometry"/>
                </mxCell>
                <mxCell id="bJMHT8rVgH3jV2KobR5U-175" value="Maintenance request" style="ellipse;whiteSpace=wrap;html=1;fillColor=none;" parent="1" vertex="1">
                    <mxGeometry x="385.01" y="410" width="163.75" height="50" as="geometry"/>
                </mxCell>
                <mxCell id="bJMHT8rVgH3jV2KobR5U-178" value="Payment history" style="ellipse;whiteSpace=wrap;html=1;fillColor=none;" parent="1" vertex="1">
                    <mxGeometry x="245" y="720" width="105" height="50" as="geometry"/>
                </mxCell>
                <mxCell id="bJMHT8rVgH3jV2KobR5U-182" value="Revenue" style="ellipse;whiteSpace=wrap;html=1;fillColor=none;" parent="1" vertex="1">
                    <mxGeometry x="504.38" y="360" width="120" height="50" as="geometry"/>
                </mxCell>
                <mxCell id="13" style="edgeStyle=none;html=1;entryX=1;entryY=0;entryDx=0;entryDy=0;exitX=0;exitY=0.5;exitDx=0;exitDy=0;" edge="1" parent="1" source="bJMHT8rVgH3jV2KobR5U-187" target="bJMHT8rVgH3jV2KobR5U-178">
                    <mxGeometry relative="1" as="geometry"/>
                </mxCell>
                <mxCell id="bJMHT8rVgH3jV2KobR5U-187" value="Payment information" style="ellipse;whiteSpace=wrap;html=1;fillColor=none;" parent="1" vertex="1">
                    <mxGeometry x="375.01" y="680" width="133.75" height="52.5" as="geometry"/>
                </mxCell>
                <mxCell id="7" style="edgeStyle=none;html=1;entryX=0;entryY=0.5;entryDx=0;entryDy=0;" edge="1" parent="1" source="6" target="bJMHT8rVgH3jV2KobR5U-166">
                    <mxGeometry relative="1" as="geometry"/>
                </mxCell>
                <mxCell id="8" style="edgeStyle=none;html=1;entryX=0;entryY=0.5;entryDx=0;entryDy=0;" edge="1" parent="1" source="6" target="bJMHT8rVgH3jV2KobR5U-175">
                    <mxGeometry relative="1" as="geometry"/>
                </mxCell>
                <mxCell id="9" style="edgeStyle=none;html=1;entryX=0;entryY=0.5;entryDx=0;entryDy=0;" edge="1" parent="1" source="6" target="bJMHT8rVgH3jV2KobR5U-182">
                    <mxGeometry relative="1" as="geometry"/>
                </mxCell>
                <mxCell id="E0ZFKpVbwkk2b9CQsdlB-41" style="edgeStyle=none;html=1;entryX=0;entryY=0;entryDx=0;entryDy=0;" edge="1" parent="1" source="6" target="E0ZFKpVbwkk2b9CQsdlB-40">
                    <mxGeometry relative="1" as="geometry"/>
                </mxCell>
                <mxCell id="6" value="Overview reports" style="ellipse;whiteSpace=wrap;html=1;" vertex="1" parent="1">
                    <mxGeometry x="256.5" y="360" width="107.5" height="45" as="geometry"/>
                </mxCell>
                <mxCell id="10" value="&amp;lt;&amp;lt;include&amp;gt;&amp;gt;" style="text;html=1;strokeColor=none;fillColor=none;align=center;verticalAlign=middle;whiteSpace=wrap;rounded=0;fontSize=11;rotation=-35;" vertex="1" parent="1">
                    <mxGeometry x="324" y="326" width="60" height="30" as="geometry"/>
                </mxCell>
                <mxCell id="11" value="&amp;lt;&amp;lt;include&amp;gt;&amp;gt;" style="text;html=1;strokeColor=none;fillColor=none;align=center;verticalAlign=middle;whiteSpace=wrap;rounded=0;fontSize=11;rotation=0;" vertex="1" parent="1">
                    <mxGeometry x="385.01" y="360" width="60" height="30" as="geometry"/>
                </mxCell>
                <mxCell id="12" value="&amp;lt;&amp;lt;include&amp;gt;&amp;gt;" style="text;html=1;strokeColor=none;fillColor=none;align=center;verticalAlign=middle;whiteSpace=wrap;rounded=0;fontSize=11;rotation=35;" vertex="1" parent="1">
                    <mxGeometry x="325.01" y="410" width="60" height="30" as="geometry"/>
                </mxCell>
                <mxCell id="15" value="&amp;lt;&amp;lt;include&amp;gt;&amp;gt;" style="text;html=1;strokeColor=none;fillColor=none;align=center;verticalAlign=middle;whiteSpace=wrap;rounded=0;fontSize=11;rotation=-30;" vertex="1" parent="1">
                    <mxGeometry x="324.88" y="690" width="60" height="30" as="geometry"/>
                </mxCell>
                <mxCell id="16" value="&amp;lt;&amp;lt;include&amp;gt;&amp;gt;" style="text;html=1;strokeColor=none;fillColor=none;align=center;verticalAlign=middle;whiteSpace=wrap;rounded=0;fontSize=11;rotation=25;" vertex="1" parent="1">
                    <mxGeometry x="503.76" y="691" width="60" height="30" as="geometry"/>
                </mxCell>
                <mxCell id="20" style="edgeStyle=none;html=1;entryX=0.5;entryY=0;entryDx=0;entryDy=0;" edge="1" parent="1" target="bJMHT8rVgH3jV2KobR5U-174">
                    <mxGeometry relative="1" as="geometry">
                        <mxPoint x="383.13" y="880" as="sourcePoint"/>
                    </mxGeometry>
                </mxCell>
                <mxCell id="21" style="edgeStyle=none;html=1;entryX=0.5;entryY=0;entryDx=0;entryDy=0;" edge="1" parent="1" source="17" target="bJMHT8rVgH3jV2KobR5U-169">
                    <mxGeometry relative="1" as="geometry"/>
                </mxCell>
                <mxCell id="22" style="edgeStyle=none;html=1;entryX=0.5;entryY=0;entryDx=0;entryDy=0;" edge="1" parent="1" source="17" target="19">
                    <mxGeometry relative="1" as="geometry"/>
                </mxCell>
                <mxCell id="17" value="Online control" style="ellipse;whiteSpace=wrap;html=1;" vertex="1" parent="1">
                    <mxGeometry x="383.14" y="860" width="110" height="40" as="geometry"/>
                </mxCell>
                <mxCell id="18" value="Room changing / cancellation" style="ellipse;whiteSpace=wrap;html=1;" vertex="1" parent="1">
                    <mxGeometry x="505.01" y="890" width="113.12" height="60" as="geometry"/>
                </mxCell>
                <mxCell id="19" value="Electrical appliances registration" style="ellipse;whiteSpace=wrap;html=1;" vertex="1" parent="1">
                    <mxGeometry x="458.13" y="960" width="140" height="50" as="geometry"/>
                </mxCell>
                <mxCell id="23" style="edgeStyle=none;html=1;entryX=0.5;entryY=0;entryDx=0;entryDy=0;exitX=1;exitY=0.5;exitDx=0;exitDy=0;" edge="1" parent="1" source="17" target="18">
                    <mxGeometry relative="1" as="geometry"/>
                </mxCell>
                <mxCell id="24" value="&amp;lt;&amp;lt;include&amp;gt;&amp;gt;" style="text;html=1;strokeColor=none;fillColor=none;align=center;verticalAlign=middle;whiteSpace=wrap;rounded=0;fontSize=11;rotation=45;" vertex="1" parent="1">
                    <mxGeometry x="448.13" y="915" width="60" height="30" as="geometry"/>
                </mxCell>
                <mxCell id="25" value="&amp;lt;&amp;lt;include&amp;gt;&amp;gt;" style="text;html=1;strokeColor=none;fillColor=none;align=center;verticalAlign=middle;whiteSpace=wrap;rounded=0;fontSize=11;rotation=5;" vertex="1" parent="1">
                    <mxGeometry x="498.13" y="860" width="60" height="30" as="geometry"/>
                </mxCell>
                <mxCell id="26" value="&amp;lt;&amp;lt;include&amp;gt;&amp;gt;" style="text;html=1;strokeColor=none;fillColor=none;align=center;verticalAlign=middle;whiteSpace=wrap;rounded=0;fontSize=11;rotation=-60;" vertex="1" parent="1">
                    <mxGeometry x="371.26" y="915" width="60" height="30" as="geometry"/>
                </mxCell>
                <mxCell id="28" value="&amp;lt;&amp;lt;include&amp;gt;&amp;gt;" style="text;html=1;strokeColor=none;fillColor=none;align=center;verticalAlign=middle;whiteSpace=wrap;rounded=0;fontSize=11;rotation=-15;" vertex="1" parent="1">
                    <mxGeometry x="296.88" y="870" width="60" height="30" as="geometry"/>
                </mxCell>
                <mxCell id="E0ZFKpVbwkk2b9CQsdlB-31" style="edgeStyle=none;html=1;entryX=1;entryY=0.5;entryDx=0;entryDy=0;" edge="1" parent="1" target="bJMHT8rVgH3jV2KobR5U-136">
                    <mxGeometry relative="1" as="geometry">
                        <mxPoint x="760" y="610" as="sourcePoint"/>
                        <Array as="points">
                            <mxPoint x="660" y="280"/>
                        </Array>
                    </mxGeometry>
                </mxCell>
                <mxCell id="E0ZFKpVbwkk2b9CQsdlB-32" style="edgeStyle=none;html=1;entryX=0;entryY=0.5;entryDx=0;entryDy=0;" edge="1" parent="1" target="bJMHT8rVgH3jV2KobR5U-136">
                    <mxGeometry relative="1" as="geometry">
                        <mxPoint x="90" y="350" as="sourcePoint"/>
                    </mxGeometry>
                </mxCell>
                <mxCell id="E0ZFKpVbwkk2b9CQsdlB-40" value="Hostel application success rate" style="ellipse;whiteSpace=wrap;html=1;fillColor=none;" vertex="1" parent="1">
                    <mxGeometry x="294" y="470" width="166" height="60" as="geometry"/>
                </mxCell>
                <mxCell id="E0ZFKpVbwkk2b9CQsdlB-43" style="edgeStyle=none;html=1;entryX=1;entryY=0.5;entryDx=0;entryDy=0;" edge="1" parent="1" source="E0ZFKpVbwkk2b9CQsdlB-42" target="E0ZFKpVbwkk2b9CQsdlB-40">
                    <mxGeometry relative="1" as="geometry"/>
                </mxCell>
                <mxCell id="E0ZFKpVbwkk2b9CQsdlB-42" value="Student college merits" style="ellipse;whiteSpace=wrap;html=1;fillColor=none;" vertex="1" parent="1">
                    <mxGeometry x="511.88" y="470" width="120" height="50" as="geometry"/>
                </mxCell>
                <mxCell id="E0ZFKpVbwkk2b9CQsdlB-59" value="&amp;lt;&amp;lt;include&amp;gt;&amp;gt;" style="text;html=1;strokeColor=none;fillColor=none;align=center;verticalAlign=middle;whiteSpace=wrap;rounded=0;fontSize=11;rotation=85;" vertex="1" parent="1">
                    <mxGeometry x="275" y="423" width="60" height="30" as="geometry"/>
                </mxCell>
                <mxCell id="E0ZFKpVbwkk2b9CQsdlB-66" style="edgeStyle=none;html=1;entryX=1;entryY=0;entryDx=0;entryDy=0;" edge="1" parent="1" target="E0ZFKpVbwkk2b9CQsdlB-42">
                    <mxGeometry relative="1" as="geometry">
                        <mxPoint x="730" y="320" as="sourcePoint"/>
                    </mxGeometry>
                </mxCell>
                <mxCell id="E0ZFKpVbwkk2b9CQsdlB-67" style="edgeStyle=none;html=1;entryX=1;entryY=0.5;entryDx=0;entryDy=0;" edge="1" parent="1" target="bJMHT8rVgH3jV2KobR5U-136">
                    <mxGeometry relative="1" as="geometry">
                        <mxPoint x="730" y="320" as="sourcePoint"/>
                        <Array as="points">
                            <mxPoint x="650" y="170"/>
                        </Array>
                    </mxGeometry>
                </mxCell>
                <mxCell id="E0ZFKpVbwkk2b9CQsdlB-65" value="KTDI Fellow Council" style="shape=umlActor;verticalLabelPosition=bottom;verticalAlign=top;html=1;outlineConnect=0;" vertex="1" parent="1">
                    <mxGeometry x="740" y="296" width="30" height="60" as="geometry"/>
                </mxCell>
                <mxCell id="E0ZFKpVbwkk2b9CQsdlB-68" style="edgeStyle=none;html=1;entryX=1;entryY=0.5;entryDx=0;entryDy=0;" edge="1" parent="1" target="bJMHT8rVgH3jV2KobR5U-154">
                    <mxGeometry relative="1" as="geometry">
                        <mxPoint x="760" y="610" as="sourcePoint"/>
                    </mxGeometry>
                </mxCell>
                <mxCell id="E0ZFKpVbwkk2b9CQsdlB-69" style="edgeStyle=none;html=1;entryX=1;entryY=0;entryDx=0;entryDy=0;" edge="1" parent="1" target="17">
                    <mxGeometry relative="1" as="geometry">
                        <mxPoint x="760" y="610" as="sourcePoint"/>
                        <Array as="points">
                            <mxPoint x="700" y="800"/>
                        </Array>
                    </mxGeometry>
                </mxCell>
                <mxCell id="E0ZFKpVbwkk2b9CQsdlB-70" style="edgeStyle=none;html=1;entryX=0.087;entryY=0.177;entryDx=0;entryDy=0;entryPerimeter=0;" edge="1" parent="1" target="bJMHT8rVgH3jV2KobR5U-187">
                    <mxGeometry relative="1" as="geometry">
                        <mxPoint x="120" y="750" as="sourcePoint"/>
                        <Array as="points">
                            <mxPoint x="160" y="690"/>
                        </Array>
                    </mxGeometry>
                </mxCell>
                <mxCell id="E0ZFKpVbwkk2b9CQsdlB-71" style="edgeStyle=none;html=1;entryX=1;entryY=0;entryDx=0;entryDy=0;" edge="1" parent="1" target="bJMHT8rVgH3jV2KobR5U-187">
                    <mxGeometry relative="1" as="geometry">
                        <mxPoint x="760" y="610" as="sourcePoint"/>
                        <Array as="points">
                            <mxPoint x="690" y="688"/>
                        </Array>
                    </mxGeometry>
                </mxCell>
                <mxCell id="E0ZFKpVbwkk2b9CQsdlB-72" style="edgeStyle=none;html=1;" edge="1" parent="1" target="17">
                    <mxGeometry relative="1" as="geometry">
                        <mxPoint x="120" y="750" as="sourcePoint"/>
                        <Array as="points">
                            <mxPoint x="210" y="860"/>
                        </Array>
                    </mxGeometry>
                </mxCell>
            </root>
        </mxGraphModel>
    </diagram>
    <diagram id="NnRZtRVn758745x28peL" name="Page-2">
        <mxGraphModel dx="816" dy="440" grid="1" gridSize="10" guides="1" tooltips="1" connect="1" arrows="1" fold="1" page="1" pageScale="1" pageWidth="850" pageHeight="1100" math="0" shadow="0">
            <root>
                <mxCell id="0"/>
                <mxCell id="1" parent="0"/>
            </root>
        </mxGraphModel>
    </diagram>
</mxfile>